<?xml version="1.0" encoding="UTF-8"?>
<!DOCTYPE svg PUBLIC "-//W3C//DTD SVG 1.0//EN" "http://www.w3.org/TR/2001/REC-SVG-20010904/DTD/svg10.dtd">
<!-- Creator: CorelDRAW X8 -->
<svg xmlns="http://www.w3.org/2000/svg" xml:space="preserve" width="210mm" height="199mm" version="1.0" style="shape-rendering:geometricPrecision; text-rendering:geometricPrecision; image-rendering:optimizeQuality; fill-rule:evenodd; clip-rule:evenodd"
viewBox="0 0 21000 19900"
 xmlns:xlink="http://www.w3.org/1999/xlink">
 <defs>
  <style type="text/css">
   <![CDATA[
    .fil0 {fill:#3A4145;fill-rule:nonzero}
   ]]>
  </style>
 </defs>
 <g id="Слой_x0020_1">
  <metadata id="CorelCorpID_0Corel-Layer"/>
  <path class="fil0" d="M18588 11264c-165,-96 -337,-186 -520,-268 -30,-2103 -312,-5615 -2768,-7546 -1059,-832 -2524,-1371 -4551,-1371 -2635,0 -4317,910 -5397,2199 -1672,1992 -1892,4888 -1917,6718 -191,87 -367,179 -537,277 12,-1013 62,-2024 184,-2996 247,-1926 784,-3699 1884,-5012 1122,-1344 2834,-2208 5416,-2284 124,-5 243,-9 367,-9 6725,0 7798,5131 7855,10301 -7,-2 -11,-4 -16,-9zm736 525c5,-18 7,-37 7,-55 0,-5347 -975,-11487 -8582,-11487 -3022,0 -4992,972 -6276,2476 -1946,2282 -2302,5790 -2302,9011 0,18 3,37 7,55 -199,174 -371,360 -518,555 -369,493 -568,1043 -536,1619l101 1777c57,1068 896,1974 2141,2508 234,101 479,186 738,259 170,46 340,90 516,124 -163,-32 -319,-78 -477,-119l-403 -7642c75,-30 156,-60 231,-87 120,-42 236,-83 358,-117 46,-16 83,-23 122,-35l426 8044c-80,-12 -161,-26 -257,-44 411,80 663,103 904,110 80,2 160,5 245,7 328,4 562,-642 518,-1438l-305 -5475c-43,-793 -325,-1415 -624,-1378 -151,18 -291,34 -458,67 82,-2034 422,-3907 1449,-5205 876,-1105 2252,-1793 4400,-1793 4670,0 5700,3228 5853,6998 -167,-33 -307,-49 -458,-67 -108,-14 -209,55 -300,186 -92,130 -175,325 -232,562 -46,190 -80,403 -92,630l-305 5475c-43,796 191,1442 518,1438 69,-2 136,-5 202,-5 209,-7 422,-20 729,-73 67,-12 140,-23 218,-39 -96,18 -176,32 -257,44l427 -8044c39,12 75,19 119,35 124,34 241,75 360,117 76,27 154,57 232,87l-404 7642c-158,41 -314,87 -477,119 871,-170 1635,-498 2220,-933 694,-521 1135,-1197 1176,-1958l101 -1777c43,-803 -356,-1562 -1055,-2174z"/>
 </g>
</svg>
