<?xml version="1.0" encoding="UTF-8"?>
<!DOCTYPE svg PUBLIC "-//W3C//DTD SVG 1.1//EN" "http://www.w3.org/Graphics/SVG/1.1/DTD/svg11.dtd">
<!-- Creator: CorelDRAW X8 -->
<svg xmlns="http://www.w3.org/2000/svg" xml:space="preserve" width="188.5mm" height="181mm" version="1.1" style="shape-rendering:geometricPrecision; text-rendering:geometricPrecision; image-rendering:optimizeQuality; fill-rule:evenodd; clip-rule:evenodd"
viewBox="0 0 18850 18100"
 xmlns:xlink="http://www.w3.org/1999/xlink">
 <defs>
  <style type="text/css">
   <![CDATA[
    .fil0 {fill:#3A4145;fill-rule:nonzero}
   ]]>
  </style>
 </defs>
 <g id="Слой_x0020_1">
  <metadata id="CorelCorpID_0Corel-Layer"/>
  <path class="fil0" d="M7125 13128c32,97 120,163 223,163 2843,0 5783,0 8700,6l0 0c130,0 239,-105 239,-235 0,-132 -107,-237 -237,-237 -2858,-8 -5741,-8 -8530,-8 -333,-1006 -626,-1983 -938,-3015 -163,-545 -331,-1107 -505,-1671 -141,-505 -285,-973 -482,-1562 -385,-1276 -1160,-3777 -1168,-3802 -29,-99 -123,-167 -226,-167l-461 0c-39,-243 -261,-429 -528,-429l-2562 0c-297,0 -536,227 -536,509l0 318c0,280 239,509 536,509l2562 0c268,0 490,-188 529,-433l285 0c182,583 791,2552 1118,3635 0,2 2,4 2,6 195,584 337,1047 474,1547 2,3 2,4 4,6 173,562 342,1126 505,1670 314,1043 638,2122 996,3190z"/>
  <path class="fil0" d="M18205 4817l-12006 0c-297,0 -538,228 -538,510l0 317c0,281 241,510 538,510l169 0 1803 6127c30,101 122,171 227,171l7608 0c103,0 196,-70 225,-171l1803 -6127 171 0c295,0 536,-229 536,-510l0 -317c0,-282 -241,-510 -536,-510z"/>
  <path class="fil0" d="M7343 13387c-678,0 -1232,553 -1232,1232 0,681 554,1233 1232,1233 682,0 1233,-552 1233,-1233 0,-679 -551,-1232 -1233,-1232z"/>
  <path class="fil0" d="M16178 13387c-680,0 -1231,553 -1231,1232 0,681 551,1233 1231,1233 681,0 1233,-552 1233,-1233 0,-679 -552,-1232 -1233,-1232z"/>
 </g>
</svg>
