<?xml version="1.0" encoding="UTF-8"?>
<!DOCTYPE svg PUBLIC "-//W3C//DTD SVG 1.1//EN" "http://www.w3.org/Graphics/SVG/1.1/DTD/svg11.dtd">
<!-- Creator: CorelDRAW X8 -->
<svg xmlns="http://www.w3.org/2000/svg" xml:space="preserve" width="210mm" height="297mm" version="1.1" style="shape-rendering:geometricPrecision; text-rendering:geometricPrecision; image-rendering:optimizeQuality; fill-rule:evenodd; clip-rule:evenodd"
viewBox="0 0 21000 29700"
 xmlns:xlink="http://www.w3.org/1999/xlink">
 <defs>
  <style type="text/css">
   <![CDATA[
    .fil0 {fill:#4D4D4D;fill-rule:nonzero}
   ]]>
  </style>
 </defs>
 <g id="Слой_x0020_1">
  <metadata id="CorelCorpID_0Corel-Layer"/>
  <path class="fil0" d="M18368 24370c0,390 -310,707 -701,707l-13481 0c-391,0 -707,-317 -707,-707l0 -21686c0,-389 316,-707 707,-707l13481 0c391,0 701,318 701,707l0 21686zm-1144 3106l-2695 0c-256,0 -468,-205 -468,-470 0,-257 212,-462 468,-462l2695 0c265,0 470,205 470,462 0,265 -205,470 -470,470zm-6300 825c-708,0 -1288,-581 -1288,-1295 0,-707 580,-1288 1288,-1288 713,0 1293,581 1293,1288 0,714 -580,1295 -1293,1295zm-3601 -825l-2702 0c-257,0 -462,-205 -462,-470 0,-257 205,-462 462,-462l2702 0c257,0 469,205 469,462 0,265 -212,470 -469,470zm12042 -27104l-16884 0c-382,0 -700,317 -700,707l0 27420c0,389 318,700 700,700l16884 0c389,0 706,-311 706,-700l0 -27420c0,-390 -317,-707 -706,-707z"/>
 </g>
</svg>
