<?xml version="1.0" encoding="UTF-8"?>
<!DOCTYPE svg PUBLIC "-//W3C//DTD SVG 1.0//EN" "http://www.w3.org/TR/2001/REC-SVG-20010904/DTD/svg10.dtd">
<!-- Creator: CorelDRAW X8 -->
<svg xmlns="http://www.w3.org/2000/svg" xml:space="preserve" width="210mm" height="297mm" version="1.0" style="shape-rendering:geometricPrecision; text-rendering:geometricPrecision; image-rendering:optimizeQuality; fill-rule:evenodd; clip-rule:evenodd"
viewBox="0 0 21000 29700"
 xmlns:xlink="http://www.w3.org/1999/xlink">
 <defs>
  <style type="text/css">
   <![CDATA[
    .fil0 {fill:#252422;fill-rule:nonzero}
   ]]>
  </style>
 </defs>
 <g id="Слой_x0020_1">
  <metadata id="CorelCorpID_0Corel-Layer"/>
  <path class="fil0" d="M17088 25910c0,-68 -1,-136 -1,-205 -516,110 -1392,261 -2357,261 -1876,0 -3194,-561 -3901,-1634 -706,1073 -2023,1634 -3899,1634l-1 0c-911,0 -1742,-135 -2265,-243 -11,136 -22,279 -33,425 13,46 24,100 35,141 125,462 191,814 -96,1109 -2,153 -1,286 7,386 54,688 3810,715 4588,715 778,0 1476,-107 3622,0 2146,107 4185,-376 4265,-1100l4 -35c-250,-288 -182,-631 -63,-1075 31,-114 64,-243 95,-379z"/>
  <path class="fil0" d="M11347 9668c-118,471 -226,962 -322,1469 26,143 51,287 76,431 535,-947 2205,-4515 2317,-4822 141,-384 782,-2048 1107,-2589 167,-279 205,-420 213,-476l-866 -820 817 -312c180,-482 -197,-1000 -341,-1172 -306,-182 -592,-433 -772,-792 -94,-189 -210,-355 -325,-495 102,1228 -596,4360 -1836,9303l-68 275z"/>
  <path class="fil0" d="M17981 2683c-189,-38 -404,-80 -605,-220 -437,-302 -1347,-529 -1691,-615l-122 -29c-146,-33 -358,-82 -589,-160 144,319 227,722 30,1125l-33 67 -395 151 475 453c134,177 59,470 -198,898 -288,479 -889,2019 -1076,2526 -121,330 -1913,4167 -2405,4987 -65,109 -123,200 -176,285 52,339 101,683 144,1033 18,122 35,254 52,415l-2 0c334,2956 347,6189 4,9101 -38,325 -110,625 -208,904 -42,119 -89,235 -141,345 602,1083 1835,1633 3686,1633 983,0 1870,-161 2353,-269l82 -18c22,-331 33,-761 33,-1280 -86,-659 -212,-1412 -312,-1850 -110,-479 -176,-877 -257,-1380 -67,-404 -143,-875 -264,-1507 -273,-1440 -396,-2111 -450,-2956 -23,-365 -66,-729 -106,-1064 -54,-451 -101,-840 -90,-1138 15,-424 -10,-884 -28,-1221l-8 -158c-12,-249 95,-581 220,-966 78,-241 158,-489 213,-731l53 -238c138,-636 239,-1096 546,-1096 179,0 277,170 309,225 323,559 533,4324 382,5715 -159,1463 87,5561 108,5793 11,123 68,1388 68,2572 64,493 135,1167 91,1428l-20 120 -130 38c-13,130 -30,242 -48,333 -35,167 -76,318 -113,453 -169,626 -215,794 663,1079 257,83 520,125 784,125 583,0 1028,-207 1203,-304 356,-17842 -1241,-23546 -1425,-24139 -113,-368 -310,-407 -607,-465z"/>
  <path class="fil0" d="M9987 19852l61 12c70,8 134,29 192,63 86,50 156,119 202,207 37,72 65,150 65,237 0,70 -15,137 -41,197 -36,90 -103,161 -180,216 -56,41 -118,67 -186,84 -38,8 -73,23 -113,23 -287,0 -519,-233 -519,-519 0,-287 232,-520 519,-520zm0 -3034l50 9c68,7 130,26 188,57 79,41 141,101 189,174 53,82 93,174 93,279 0,114 -45,213 -107,299 -51,70 -113,129 -193,167 -59,29 -123,43 -191,48l-29 5c-286,0 -519,-232 -519,-518 0,-288 232,-520 519,-520zm0 -2875c88,0 166,27 239,65 71,37 129,91 175,156 61,85 106,185 106,297 0,150 -65,282 -166,377 -57,52 -125,87 -200,111 -49,16 -99,31 -154,31 -286,0 -519,-232 -519,-519 0,-286 232,-518 519,-518zm-5691 12446c-37,-136 -78,-286 -113,-453 -18,-92 -34,-204 -49,-333l-12 -5 -117 -33 -19 -120c-45,-261 26,-935 92,-1454 -1,-1164 55,-2425 67,-2546 21,-233 264,-4344 107,-5792 -150,-1392 60,-5158 383,-5716 32,-55 130,-224 308,-224 309,0 408,460 547,1098l52 235c55,243 135,490 213,731 125,385 233,716 220,966l-8 155c-18,337 -42,799 -27,1224 10,296 -37,686 -91,1137 -40,336 -84,700 -107,1064 -54,848 -177,1519 -450,2957 -119,631 -196,1102 -262,1506 -83,504 -148,901 -258,1380 -100,438 -226,1191 -313,1874 1,498 12,925 34,1257 59,14 127,28 201,44 503,105 1330,242 2235,243l0 0c1851,0 3084,-550 3686,-1635 42,-73 69,-158 104,-237l37 -88c24,-60 52,-116 73,-177 84,-245 150,-504 184,-791 356,-3027 324,-6404 -56,-9442 -28,-187 -61,-328 -103,-447 -22,-57 -46,-111 -72,-165 -42,-83 -92,-168 -153,-263l-1 -3 -59 -93c-30,-47 -62,-98 -96,-152 -43,-67 -88,-141 -138,-224 -494,-822 -2284,-4657 -2406,-4986 -186,-506 -787,-2046 -1075,-2525 -258,-429 -331,-723 -220,-874l499 -478 -397 -151 -33 -68c-200,-411 -111,-822 38,-1143 -253,89 -486,143 -644,179l-123 29c-342,86 -1254,313 -1690,615 -202,138 -416,180 -606,218 -297,59 -494,98 -608,467 -184,592 -1780,6298 -1425,24139 176,96 621,304 1205,304 262,0 526,-42 783,-125 877,-286 832,-453 663,-1079z"/>
  <path class="fil0" d="M8084 585c-161,321 -406,555 -673,732 -28,30 -606,657 -393,1232l818 312 -865 823c8,57 47,200 212,473 324,541 965,2205 1107,2589 109,298 1707,3716 2280,4758 35,63 66,119 93,164l56 90 37 61c-7,-46 -16,-90 -24,-136 -32,-183 -63,-366 -97,-546 -97,-507 -204,-998 -322,-1469l-69 -275c-1239,-4946 -1938,-8077 -1836,-9304 -114,140 -229,307 -324,496z"/>
 </g>
</svg>
