<?xml version="1.0" encoding="UTF-8"?>
<!DOCTYPE svg PUBLIC "-//W3C//DTD SVG 1.0//EN" "http://www.w3.org/TR/2001/REC-SVG-20010904/DTD/svg10.dtd">
<!-- Creator: CorelDRAW X8 -->
<svg xmlns="http://www.w3.org/2000/svg" xml:space="preserve" width="210mm" height="199mm" version="1.0" style="shape-rendering:geometricPrecision; text-rendering:geometricPrecision; image-rendering:optimizeQuality; fill-rule:evenodd; clip-rule:evenodd"
viewBox="0 0 21000 19900"
 xmlns:xlink="http://www.w3.org/1999/xlink">
 <defs>
  <style type="text/css">
   <![CDATA[
    .fil0 {fill:#3A4145;fill-rule:nonzero}
   ]]>
  </style>
 </defs>
 <g id="Слой_x0020_1">
  <metadata id="CorelCorpID_0Corel-Layer"/>
  <path class="fil0" d="M17791 12959c0,295 -242,536 -537,536l-768 0c-295,0 -537,-241 -537,-536l0 -1027c0,-293 242,-536 537,-536l768 0c295,0 537,243 537,536l0 1027zm0 2783c0,296 -242,536 -537,536l-768 0c-295,0 -537,-240 -537,-536l0 -1110c0,-296 242,-536 537,-536l768 0c295,0 537,240 537,536l0 1110zm-2441 -2783c0,295 -242,536 -537,536l-768 0c-295,0 -537,-241 -537,-536l0 -1027c0,-293 242,-536 537,-536l768 0c295,0 537,243 537,536l0 1027zm0 2783c0,296 -242,536 -537,536l-768 0c-295,0 -537,-240 -537,-536l0 -1110c0,-296 242,-536 537,-536l768 0c295,0 537,240 537,536l0 1110zm-8097 -2783c0,295 -241,536 -536,536l-768 0c-295,0 -537,-241 -537,-536l0 -1027c0,-293 242,-536 537,-536l768 0c295,0 536,243 536,536l0 1027zm0 2783c0,296 -241,536 -536,536l-768 0c-295,0 -537,-240 -537,-536l0 -1110c0,-296 242,-536 537,-536l768 0c295,0 536,240 536,536l0 1110zm-2440 -2783c0,295 -242,536 -537,536l-768 0c-295,0 -537,-241 -537,-536l0 -1027c0,-293 242,-536 537,-536l768 0c295,0 537,243 537,536l0 1027zm0 2783c0,296 -242,536 -537,536l-768 0c-295,0 -537,-240 -537,-536l0 -1110c0,-296 242,-536 537,-536l768 0c295,0 537,240 537,536l0 1110zm14450 -7182l-17764 0c-296,0 -537,241 -537,536l0 10244c0,296 241,539 537,539l6311 0c295,0 537,-243 537,-539l0 -4708c0,-296 0,-671 0,-837 0,-166 0,-387 0,-495 0,-106 241,-192 537,-192l2995 0c294,0 536,86 536,192 0,108 0,329 0,495 0,166 0,541 0,837l0 4708c0,296 241,539 537,539l6311 0c296,0 537,-243 537,-539l0 -10244c0,-295 -241,-536 -537,-536z"/>
  <path class="fil0" d="M1499 7570l17764 0c296,0 346,-149 112,-329l-8569 -6622c-117,-89 -271,-135 -425,-135 -154,0 -308,46 -425,135l-3591 2776c-80,63 -156,91 -220,91 -123,0 -204,-108 -204,-300l0 -2144c0,-296 -242,-536 -537,-536l-1566 0c-295,0 -537,240 -537,536l0 4182c0,296 -191,685 -424,865l-1490 1152c-234,180 -184,329 112,329z"/>
 </g>
</svg>
