<?xml version="1.0" encoding="UTF-8"?>
<!DOCTYPE svg PUBLIC "-//W3C//DTD SVG 1.0//EN" "http://www.w3.org/TR/2001/REC-SVG-20010904/DTD/svg10.dtd">
<!-- Creator: CorelDRAW X8 -->
<svg xmlns="http://www.w3.org/2000/svg" xml:space="preserve" width="210mm" height="199mm" version="1.0" style="shape-rendering:geometricPrecision; text-rendering:geometricPrecision; image-rendering:optimizeQuality; fill-rule:evenodd; clip-rule:evenodd"
viewBox="0 0 21000 19900"
 xmlns:xlink="http://www.w3.org/1999/xlink">
 <defs>
  <style type="text/css">
   <![CDATA[
    .fil1 {fill:#FEFEFE;fill-rule:nonzero}
    .fil0 {fill:#3A4145;fill-rule:nonzero}
   ]]>
  </style>
 </defs>
 <g id="Слой_x0020_1">
  <metadata id="CorelCorpID_0Corel-Layer"/>
  <path class="fil0" d="M18508 3132c-2227,-2102 -5838,-2102 -8065,0l0 0c-2226,-2102 -5838,-2102 -8066,0 -2228,2101 -2228,5509 0,7611l8066 7611 8065 -7611 0 0c2228,-2102 2228,-5510 0,-7611z"/>
  <path class="fil1" d="M9222 8838c-987,1748 -764,2972 1181,3721 -18,-491 -173,-1416 -557,-2400 456,663 688,1741 828,2341 1150,-1661 470,-2751 -1452,-3662z"/>
  <path class="fil1" d="M13317 13282c-46,18 -85,50 -108,92l-119 219 -314 -6963c0,-2 0,-3 0,-5 0,-10 -3,-21 -4,-31 0,-1 0,-2 -2,-3 -3,-10 -6,-20 -11,-30 -2,-3 -3,-6 -5,-9 -1,-3 -3,-6 -4,-9l-228 -376 1167 -402 327 7250 -699 267zm-6654 877l330 -7327 5368 0 330 7327 -6028 0zm2496 -9250c0,-228 161,-431 411,-557l0 880 -411 0 0 -323zm1840 -1552c554,0 1006,413 1006,922l0 953 -410 0 0 -323c0,-596 -642,-1080 -1431,-1080 -15,0 -28,0 -43,1 172,-282 502,-473 878,-473zm-1005 871c56,-7 112,-10 170,-10 554,0 1006,310 1006,691l0 323 -1176 0 0 -953c0,-18 0,-34 0,-51zm4105 1190c-6,-104 -99,-186 -214,-186l-1456 0 0 -953c0,-723 -641,-1311 -1430,-1311 -649,0 -1197,397 -1372,940 -522,161 -893,549 -893,1001l0 323 -623 0c-64,0 -125,27 -165,73 -37,43 -53,99 -43,153 -5,26 -4,53 2,79l99 356 -1305 569c-4,2 -7,4 -11,6 -8,4 -13,7 -19,11 -6,4 -12,7 -16,11 -6,5 -11,9 -16,13 -4,5 -8,9 -13,14 -4,5 -8,10 -11,16 -4,4 -7,9 -10,15 -3,6 -6,11 -10,17 -2,6 -3,11 -6,17 -1,6 -3,12 -6,19 0,6 -1,12 -2,19 0,3 -2,6 -2,10l-347 7716c-3,53 20,104 59,142 40,39 94,60 153,60l6469 0c1,0 1,0 1,0 13,0 26,-1 38,-3 4,-1 7,-1 10,-2 11,-2 23,-5 33,-10 1,0 2,0 4,-1 11,-4 21,-10 31,-16 3,-2 6,-3 8,-5 10,-6 18,-13 27,-21 1,0 1,-1 3,-2 0,0 0,0 0,0 8,-9 17,-18 24,-28 2,-2 3,-5 4,-8 3,-4 5,-7 8,-11l452 -828 762 -291c82,-32 135,-106 130,-188l-347 -7716z"/>
 </g>
</svg>
