<?xml version="1.0" encoding="UTF-8"?>
<!DOCTYPE svg PUBLIC "-//W3C//DTD SVG 1.1//EN" "http://www.w3.org/Graphics/SVG/1.1/DTD/svg11.dtd">
<!-- Creator: CorelDRAW X8 -->
<svg xmlns="http://www.w3.org/2000/svg" xml:space="preserve" width="171.618mm" height="193.172mm" version="1.1" style="shape-rendering:geometricPrecision; text-rendering:geometricPrecision; image-rendering:optimizeQuality; fill-rule:evenodd; clip-rule:evenodd"
viewBox="0 0 17183 19341"
 xmlns:xlink="http://www.w3.org/1999/xlink">
 <defs>
  <style type="text/css">
   <![CDATA[
    .fil0 {fill:#3A4145;fill-rule:nonzero}
   ]]>
  </style>
 </defs>
 <g id="Слой_x0020_1">
  <metadata id="CorelCorpID_0Corel-Layer"/>
  <path class="fil0" d="M4783 7884c912,2169 2650,3348 3809,3348 1138,0 2734,-1141 3659,-3281 224,-520 419,-1184 554,-1834 151,-518 234,-1177 234,-2018 0,-2225 -1991,-4099 -4447,-4099 -2455,0 -4447,1874 -4447,4099 0,587 36,1086 103,1508 90,771 264,1639 535,2277z"/>
  <path class="fil0" d="M16456 14219c-889,-949 -3389,-712 -4624,-1364 -550,1026 -557,2716 -1469,2716 -39,0 -80,-2 -122,-10 -1374,-206 -687,-3710 -1649,-3710 -962,0 -275,3504 -1649,3710 -43,8 -83,10 -123,10 -911,0 -919,-1690 -1468,-2716 -1235,652 -3734,415 -4620,1364 -482,515 -732,3706 -732,5122l17183 0c0,-1416 -248,-4607 -727,-5122z"/>
 </g>
</svg>
