<?xml version="1.0" encoding="UTF-8"?>
<!DOCTYPE svg PUBLIC "-//W3C//DTD SVG 1.0//EN" "http://www.w3.org/TR/2001/REC-SVG-20010904/DTD/svg10.dtd">
<!-- Creator: CorelDRAW X8 -->
<svg xmlns="http://www.w3.org/2000/svg" xml:space="preserve" width="284.163mm" height="140.092mm" version="1.0" style="shape-rendering:geometricPrecision; text-rendering:geometricPrecision; image-rendering:optimizeQuality; fill-rule:evenodd; clip-rule:evenodd"
viewBox="0 0 28144 13875"
 xmlns:xlink="http://www.w3.org/1999/xlink">
 <defs>
  <style type="text/css">
   <![CDATA[
    .fil0 {fill:#252422;fill-rule:nonzero}
   ]]>
  </style>
 </defs>
 <g id="Слой_x0020_1">
  <metadata id="CorelCorpID_0Corel-Layer"/>
  <path class="fil0" d="M25415 6298c-843,-155 -2270,-157 -3972,-473l234 1401c41,239 -121,465 -360,505l-73 5c-210,0 -396,-151 -432,-366l-243 -1455c-26,-160 -175,-319 -331,-361 -87,-25 -175,-49 -264,-75 -156,-45 -260,46 -233,205l122 734c41,239 -121,464 -360,506l-73 6c-210,0 -396,-152 -432,-367l-202 -1209c-27,-160 -170,-337 -319,-399 -105,-44 -210,-89 -315,-137 -147,-66 -244,7 -216,166l104 626c40,239 -122,465 -361,505l-72 6c-210,0 -396,-152 -431,-366l-216 -1287c-26,-160 -161,-355 -298,-438 -131,-82 -262,-166 -392,-253 -134,-90 -221,-36 -194,123l150 902c41,239 -121,465 -360,504l-72 6c-211,0 -397,-151 -433,-366l-372 -2237c-88,-100 -168,-197 -232,-282 -539,-717 -1617,-2025 -2508,-2340 -932,-330 -1679,343 -1840,967 -80,313 60,833 161,1141 62,190 159,398 308,570 213,243 294,501 47,709 -576,490 -1667,1320 -2903,1777 -2436,902 -2863,-340 -2863,-340 0,0 -539,-1748 -1402,-2376 -261,-191 -802,-259 -1116,-186 -111,28 -213,70 -311,118 192,1124 1037,3840 4730,5622 4789,2313 14329,2774 16117,2841 161,6 163,34 4,61 -1164,196 -5676,864 -10164,314 -5517,-678 -10594,-2265 -11923,-6735 -27,97 -53,188 -78,267 -215,676 -414,1126 -454,2594 -9,323 -142,811 -256,1113 -136,362 -280,896 -300,1556 -19,656 -18,1216 -12,1607 3,322 207,763 485,927 199,118 451,239 740,313 313,81 798,225 1106,324 134,43 289,78 461,96 322,33 697,-10 839,-2 141,8 255,82 255,165 0,84 169,151 378,151 209,0 437,-88 511,-195 74,-108 222,-195 329,-195 108,0 196,88 196,195 0,108 158,195 353,195 195,0 408,-93 475,-208 67,-114 204,-207 305,-207 100,0 242,93 316,207 75,114 276,208 451,208 175,0 371,-88 439,-195 67,-108 225,-108 353,0 128,108 423,195 657,195 236,0 454,-71 488,-158 33,-88 159,-159 280,-159 121,0 274,71 342,159 67,87 301,119 523,72 222,-47 451,-183 512,-304 61,-121 186,-143 281,-49 93,94 349,198 572,231 222,34 489,-5 596,-86 108,-80 283,-129 389,-109 109,21 196,118 196,220 0,101 185,183 414,183 229,0 479,-55 561,-123 81,-67 239,-105 353,-85 114,20 207,91 207,159 0,67 113,121 255,121 142,0 350,-44 463,-98 115,-53 273,-87 354,-72 81,12 147,84 147,158 0,75 261,134 584,134l49 0c323,0 584,-87 584,-194 0,-109 93,-196 207,-196 114,0 208,88 208,196 0,107 228,194 511,194 282,0 610,-59 731,-134 121,-74 301,-74 402,0 101,75 439,134 755,134 316,0 628,-76 695,-170 68,-94 215,-198 328,-232 115,-33 252,16 305,110 54,94 354,120 672,58l94 -19c317,-62 607,-216 647,-344 41,-128 134,-243 208,-256 74,-13 200,58 280,158 81,102 321,134 536,73 215,-60 417,-262 451,-450 34,-189 175,-379 317,-426 141,-47 255,24 255,159 0,134 245,150 547,37 304,-116 549,-317 549,-452 0,-135 82,-277 183,-317 101,-40 232,-24 293,36 59,61 240,18 402,-97 161,-114 314,-294 341,-401 27,-109 276,-330 513,-550 488,-454 1147,-1348 827,-2702 -488,-2059 -854,-1463 -2645,-1792z"/>
 </g>
</svg>
