<?xml version="1.0" encoding="UTF-8"?>
<!DOCTYPE svg PUBLIC "-//W3C//DTD SVG 1.0//EN" "http://www.w3.org/TR/2001/REC-SVG-20010904/DTD/svg10.dtd">
<!-- Creator: CorelDRAW X8 -->
<svg xmlns="http://www.w3.org/2000/svg" xml:space="preserve" width="353.483mm" height="353.483mm" version="1.0" style="shape-rendering:geometricPrecision; text-rendering:geometricPrecision; image-rendering:optimizeQuality; fill-rule:evenodd; clip-rule:evenodd"
viewBox="0 0 35348 35348"
 xmlns:xlink="http://www.w3.org/1999/xlink">
 <defs>
  <style type="text/css">
   <![CDATA[
    .fil0 {fill:#4E565A}
   ]]>
  </style>
 </defs>
 <g id="Слой_x0020_1">
  <metadata id="CorelCorpID_0Corel-Layer"/>
  <path class="fil0" d="M15397 2260c538,-498 1639,-539 2326,-539 2890,0 5706,736 8213,2151 -3438,1790 -6141,4528 -7782,8077 -813,1761 -1409,3827 -1580,5785 -1093,691 -3074,976 -4262,1081 -1212,107 -2539,130 -3758,-5 11,-2343 408,-4788 1090,-7023 1108,-3628 3022,-6880 5753,-9527zm18768 18767c-1435,-3419 -3471,-6720 -6145,-9247 -1339,-1264 -2859,-2424 -4474,-3320 1326,-1261 2864,-2243 4537,-2976 112,23 287,79 358,119 3821,3190 6020,7871 6020,12856 0,861 -119,1720 -296,2568zm-27995 -2678c-1687,-468 -3300,-1226 -4741,-2217 -137,-92 -207,-493 -181,-637 1043,-5840 5137,-10686 10651,-12732 -2479,2832 -4108,6252 -4987,9923 -436,1825 -706,3767 -742,5663zm20060 14526c181,-3794 -865,-7410 -3020,-10545 -1125,-1639 -2575,-3191 -4165,-4394 -28,-51 -63,-139 -75,-192 295,-2607 1337,-5263 2891,-7375 61,-10 138,-15 182,-9 1940,1024 3760,2503 5258,4091 2707,2870 4614,6346 5813,10092 17,122 7,420 -17,544 -1405,3253 -3821,5987 -6867,7788zm-19175 -1521c3264,537 6620,310 9831,-488 2214,-549 4503,-1390 6555,-2460 397,1567 519,3175 389,4795l-1 21 -1 21c-3,261 -103,501 -260,706 -77,99 -250,280 -364,327 -1764,611 -3614,920 -5481,920 -3924,0 -7675,-1361 -10668,-3842zm15499 -5171c-583,453 -1387,865 -1995,1149 -1331,619 -2763,1089 -4192,1420 -3840,890 -7873,817 -11634,-407 -453,-157 -1237,-1057 -1475,-1463 -1491,-2556 -2240,-5196 -2240,-8170 0,-50 1,-101 4,-152 879,524 1808,969 2757,1347 4534,1802 9344,1566 13832,-230 2288,1663 4012,3814 4943,6506z"/>
 </g>
</svg>
