<?xml version="1.0" encoding="UTF-8"?>
<!DOCTYPE svg PUBLIC "-//W3C//DTD SVG 1.0//EN" "http://www.w3.org/TR/2001/REC-SVG-20010904/DTD/svg10.dtd">
<!-- Creator: CorelDRAW X8 -->
<svg xmlns="http://www.w3.org/2000/svg" xml:space="preserve" width="210mm" height="199mm" version="1.0" style="shape-rendering:geometricPrecision; text-rendering:geometricPrecision; image-rendering:optimizeQuality; fill-rule:evenodd; clip-rule:evenodd"
viewBox="0 0 21000 19900"
 xmlns:xlink="http://www.w3.org/1999/xlink">
 <defs>
  <style type="text/css">
   <![CDATA[
    .fil0 {fill:#3A4145;fill-rule:nonzero}
   ]]>
  </style>
 </defs>
 <g id="Слой_x0020_1">
  <metadata id="CorelCorpID_0Corel-Layer"/>
  <path class="fil0" d="M6141 13324l-1723 5691c-164,544 82,724 549,399l4883 -3397c467,-324 1230,-324 1697,0l4317 3005 565 392c465,325 714,145 549,-399l-1723 -5691c-103,-341 -49,-754 118,-1098 98,-207 237,-388 407,-516l4162 -3156 575 -437c455,-343 361,-634 -208,-644l-5946 -123c-568,-12 -1186,-461 -1371,-997l-1954 -5619c-186,-535 -494,-535 -679,0l-243 700 -1711 4919c-130,376 -474,707 -864,877 -167,70 -340,117 -508,120l-5946 123c-568,10 -663,301 -208,644l252 192 4486 3401c452,343 689,1070 524,1614z"/>
 </g>
</svg>
